<?xml version="1.0" standalone="no"?>
<!DOCTYPE svg PUBLIC "-//W3C//DTD SVG 20010904//EN"
 "http://www.w3.org/TR/2001/REC-SVG-20010904/DTD/svg10.dtd">
<svg version="1.0" xmlns="http://www.w3.org/2000/svg"
 width="200.000000pt" height="200.000000pt" viewBox="0 0 200.000000 200.000000"
 preserveAspectRatio="xMidYMid meet">

<g transform="translate(0.000000,200.000000) scale(0.100000,-0.100000)"
fill="#000000" stroke="none">
<path d="M0 1000 l0 -1000 1000 0 1000 0 0 1000 0 1000 -1000 0 -1000 0 0
-1000z m390 132 c38 -20 80 -89 80 -132 0 -14 -10 -46 -22 -70 -71 -137 -278
-85 -278 70 0 113 119 185 220 132z m387 -38 c-9 -9 -28 6 -21 18 4 6 10 6 17
-1 6 -6 8 -13 4 -17z m-107 -11 c0 -10 6 -13 16 -9 9 4 23 1 30 -5 16 -13 19
-79 4 -79 -5 0 -10 11 -10 24 0 25 -22 51 -33 39 -4 -3 -7 -19 -7 -35 0 -18
-5 -28 -15 -28 -11 0 -15 13 -15 53 0 30 3 57 6 60 10 10 24 -2 24 -20z m260
-10 c0 -25 0 -26 20 -8 25 23 39 12 16 -14 -15 -16 -15 -19 -1 -31 8 -7 15
-16 15 -21 0 -15 -22 -10 -36 9 -13 16 -13 16 -14 0 0 -22 -20 -24 -21 -3 -5
60 1 106 11 100 6 -3 10 -18 10 -32z m230 11 c0 -10 6 -13 19 -9 24 7 43 -17
39 -52 -3 -25 -7 -28 -45 -30 l-43 -2 0 53 c0 29 3 56 6 59 10 10 24 -2 24
-19z m458 -36 l3 -56 -41 0 c-34 -1 -43 3 -52 24 -9 19 -8 28 7 44 11 13 25
18 37 14 14 -4 18 0 18 16 0 13 5 20 13 18 7 -3 13 -27 15 -60z m-1008 17 c16
-19 6 -32 -13 -17 -17 15 -42 -1 -34 -22 5 -12 14 -15 32 -10 30 7 35 -12 5
-21 -34 -11 -60 4 -60 34 0 47 43 69 70 36z m170 -30 c0 -33 -4 -45 -15 -45
-11 0 -15 11 -15 38 0 21 3 42 7 45 16 16 23 4 23 -38z m90 30 c15 -19 5 -34
-12 -17 -15 15 -39 -3 -31 -24 3 -9 13 -12 30 -8 19 5 24 3 21 -7 -6 -18 -45
-24 -64 -9 -19 17 -18 57 4 69 24 15 38 13 52 -4z m184 9 c23 -9 20 -26 -4
-19 -11 4 -20 2 -20 -4 0 -6 6 -11 13 -11 19 0 36 -20 30 -36 -7 -19 -47 -18
-63 1 -15 17 -7 19 21 5 13 -8 19 -7 19 0 0 6 -11 15 -25 20 -28 11 -31 20
-13 38 14 14 20 14 42 6z m246 -10 c0 -7 -7 -14 -15 -18 -8 -3 -15 -17 -15
-31 0 -16 -6 -25 -15 -25 -11 0 -15 11 -15 38 0 21 3 41 6 44 10 10 54 3 54
-8z m81 6 c21 -12 25 -50 7 -68 -18 -18 -56 -14 -68 7 -14 27 -13 37 6 55 18
19 28 20 55 6z m113 -6 c30 -30 13 -74 -29 -74 -60 0 -59 88 2 90 6 0 19 -7
27 -16z m207 6 c30 -17 24 -40 -11 -40 -16 0 -30 -5 -30 -11 0 -7 11 -8 32 -3
30 6 31 5 19 -10 -8 -10 -25 -16 -40 -14 -20 2 -27 9 -29 31 -3 28 12 57 30
57 5 0 18 -5 29 -10z m99 -7 c0 -7 -7 -13 -15 -13 -10 0 -15 -10 -15 -30 0
-20 -5 -30 -15 -30 -11 0 -15 12 -15 44 0 42 1 43 30 42 17 -1 30 -7 30 -13z"/>
<path d="M287 1079 c9 -9 8 -16 -3 -27 -8 -8 -13 -21 -10 -28 3 -8 -1 -14 -8
-14 -9 0 -13 -13 -12 -41 2 -81 87 -105 126 -36 12 23 13 29 1 36 -9 6 -10 11
-2 15 16 10 14 26 -4 26 -8 0 -15 9 -15 19 0 11 -4 22 -10 26 -5 3 -8 11 -6
18 1 7 1 9 -1 5 -7 -12 -43 -10 -43 2 0 6 -5 10 -12 10 -9 0 -9 -3 -1 -11z
m61 -48 c6 -40 -39 -56 -58 -20 -9 15 -8 24 1 35 18 22 53 13 57 -15z m12 -50
c-8 -15 -7 -22 5 -28 13 -8 12 -12 -5 -31 -26 -27 -51 -28 -81 -3 -24 20 -24
20 -4 35 14 10 24 11 32 4 14 -12 47 8 38 22 -4 7 5 14 23 19 1 1 -2 -8 -8
-18z m-39 -1 c6 0 7 -5 3 -11 -4 -7 -10 -7 -16 -1 -6 6 -17 8 -26 5 -10 -5
-13 -2 -8 6 5 7 15 10 23 7 8 -3 19 -6 24 -6z"/>
<path d="M1163 1044 c-8 -21 13 -42 28 -27 13 13 5 43 -11 43 -6 0 -13 -7 -17
-16z"/>
<path d="M1561 1051 c-15 -10 -8 -41 9 -41 15 0 25 29 14 40 -5 5 -15 5 -23 1z"/>
<path d="M1344 1046 c-9 -24 12 -44 28 -28 10 10 8 16 -5 29 -15 15 -17 15
-23 -1z"/>
<path d="M1450 1045 c-14 -16 -5 -35 16 -35 15 0 20 35 5 44 -5 3 -14 -1 -21
-9z"/>
<path d="M1665 1050 c-3 -5 3 -10 15 -10 12 0 18 5 15 10 -3 6 -10 10 -15 10
-5 0 -12 -4 -15 -10z"/>
</g>
</svg>
